<svg xmlns="http://www.w3.org/2000/svg" viewBox="0 0 35.98 51.92"><defs><style>.cls-1{fill:#f7f3f2;}.cls-2,.cls-4{fill:#666;}.cls-3{fill:none;stroke-miterlimit:10;stroke-width:0.94px;}.cls-3,.cls-4{stroke:#666;}.cls-4{stroke-linecap:round;stroke-linejoin:round;stroke-width:0.6px;}</style></defs><g id="レイヤー_2" data-name="レイヤー 2"><g id="レイヤー_1-2" data-name="レイヤー 1"><polygon class="cls-1" points="35.98 51.92 0 51.92 0 5.67 17.99 0 35.98 5.67 35.98 51.92"/><path class="cls-2" d="M7.87,11.58H10a1.8,1.8,0,0,1,1.88,1.8A1.75,1.75,0,0,1,10,15.13H8.63v2.23H7.87ZM10,14.45a1.08,1.08,0,0,0,1.19-1.08A1.11,1.11,0,0,0,10,12.26H8.63v2.19Z"/><path class="cls-2" d="M17.63,17.34v0h-.8l-.55-1.18h-3l-.55,1.18H12v0l2.72-5.8h.23Zm-3.22-3.58-.8,1.76H16l-.8-1.76c-.14-.3-.26-.6-.38-.93C14.67,13.15,14.55,13.45,14.41,13.76Z"/><path class="cls-2" d="M23.6,14.21v2.16a3,3,0,0,1-5.33-1.91,2.85,2.85,0,0,1,3-3,3,3,0,0,1,2.22.95l-.47.49a2.28,2.28,0,0,0-1.73-.75,2.13,2.13,0,0,0-2.2,2.29,2.17,2.17,0,0,0,2.26,2.31,2.09,2.09,0,0,0,1.59-.66V14.88H21.21v-.67Z"/><path class="cls-2" d="M28.75,16.67v.69H25.13V11.58h3.54v.69H25.89v1.81h2.45v.66H25.89v1.93Z"/><path class="cls-2" d="M14.26,22.2H12.55v5.08h-.76V22.2h-1.7v-.7h4.17Z"/><path class="cls-2" d="M14.81,24.38a2.86,2.86,0,0,1,3-3,2.86,2.86,0,0,1,3,3,3,3,0,1,1-5.92,0Zm5.15,0a2.19,2.19,0,1,0-4.37,0,2.19,2.19,0,1,0,4.37,0Z"/><path class="cls-2" d="M22.25,21.5h2.16a1.8,1.8,0,0,1,1.88,1.8,1.75,1.75,0,0,1-1.91,1.75H23v2.23h-.76Zm2.09,2.87a1.08,1.08,0,0,0,1.19-1.08,1.11,1.11,0,0,0-1.16-1.11H23v2.19Z"/><path class="cls-3" d="M12.45,43.41,12.18,45a.79.79,0,0,1-.5.6l-1.48.53A.75.75,0,0,1,9.44,46l-1.2-1A.76.76,0,0,1,8,44.21l.27-1.54a.79.79,0,0,1,.5-.6l1.47-.53a.76.76,0,0,1,.77.13l1.2,1A.78.78,0,0,1,12.45,43.41Z"/><path class="cls-4" d="M11.74,42.22l6-3.28,6.38-5,4.07-2.68a44.18,44.18,0,0,1-3.39,3.35c-2.85,2.53-6.71,5.63-7,5.76-.44.22-5.59,2.22-5.59,2.22Z"/><path class="cls-3" d="M23.46,43.51l.27,1.55a.77.77,0,0,0,.51.59l1.47.54a.78.78,0,0,0,.76-.14l1.2-1a.76.76,0,0,0,.27-.73l-.27-1.55a.77.77,0,0,0-.5-.59l-1.47-.54a.79.79,0,0,0-.77.14l-1.2,1A.79.79,0,0,0,23.46,43.51Z"/><path class="cls-4" d="M24.18,42.33l-6-3.29-6.38-5L7.7,31.34a42.09,42.09,0,0,0,3.39,3.35c2.85,2.54,6.71,5.64,7,5.77.44.22,5.59,2.21,5.59,2.21Z"/></g></g></svg>