<svg xmlns="http://www.w3.org/2000/svg" viewBox="0 0 117.37 30"><defs><style>.cls-1{fill:#f7f3f2;}</style></defs><g id="レイヤー_2" data-name="レイヤー 2"><g id="レイヤー_1-2" data-name="レイヤー 1"><path class="cls-1" d="M19.08,5.77A2.25,2.25,0,0,1,16.64,8H13.46V0h3a2.13,2.13,0,0,1,2.28,2.06,1.91,1.91,0,0,1-1,1.7A2.17,2.17,0,0,1,19.08,5.77ZM14.21,3.48h2.21A1.36,1.36,0,0,0,18,2.06,1.4,1.4,0,0,0,16.38.71H14.21Zm4.1,2.26a1.53,1.53,0,0,0-1.64-1.56H14.21V7.29h2.41A1.55,1.55,0,0,0,18.31,5.74Z"/><path class="cls-1" d="M27.9,5a4,4,0,0,1,0,.49H23.39a2,2,0,0,0,2.09,1.94,2.15,2.15,0,0,0,1.73-.69l.42.5a2.89,2.89,0,0,1-2.1.87,2.75,2.75,0,0,1-2.87-2.91,2.75,2.75,0,0,1,2.77-2.88A2.4,2.4,0,0,1,27.9,5Zm-4.5-.14h3.78A1.68,1.68,0,0,0,25.43,3,2,2,0,0,0,23.4,4.87Z"/><path class="cls-1" d="M35.76,4.3V8h-.53L35.1,7A2.22,2.22,0,0,1,33,8.09a1.55,1.55,0,0,1-1.76-1.54C31.25,5.3,32.4,4.6,34,4.6a7.36,7.36,0,0,1,1,.06V4.24c0-.81-.57-1.16-1.39-1.16a4.31,4.31,0,0,0-1.87.47l-.26-.62a5,5,0,0,1,2.21-.53A1.79,1.79,0,0,1,35.76,4.3Zm-.72,1a8.37,8.37,0,0,0-1,0C32.79,5.22,32,5.67,32,6.5c0,.58.41.91,1.12.91A2,2,0,0,0,35,5.27Z"/><path class="cls-1" d="M44.44,2.45V8h-.55l-.14-1a2.07,2.07,0,0,1-1.87,1.1c-1.41,0-2-.92-2-2.26V2.45h.72V5.84c0,.92.36,1.57,1.35,1.57,1.15,0,1.8-1,1.8-2.21V2.45Z"/><path class="cls-1" d="M49.12,6.45V3.09l-1.07,0v-.6h1.07V.72h.72V2.45h2v.64h-2V6.45c0,.7.29.94.78.94A1.84,1.84,0,0,0,51.72,7l.33.54a2.57,2.57,0,0,1-1.5.53C49.66,8.09,49.12,7.55,49.12,6.45Z"/><path class="cls-1" d="M60.12,2.45v0l-3.3,8.11h-.75v0l1.17-2.8L54.85,2.47v0h.76l1.56,3.44c.15.33.28.67.43,1.08.13-.41.26-.74.39-1.08l1.37-3.44Z"/><path class="cls-1" d="M68.83,0h2.93a2.42,2.42,0,0,1,2.52,2.43,2.35,2.35,0,0,1-2.56,2.35H69.58V8h-.75Zm2.88,4.09a1.66,1.66,0,0,0,1.81-1.67A1.69,1.69,0,0,0,71.75.71H69.58V4.09Z"/><path class="cls-1" d="M77.38,5.22a2.84,2.84,0,1,1,5.68,0,2.84,2.84,0,1,1-5.68,0Zm5,0a2.12,2.12,0,1,0-4.24,0,2.12,2.12,0,1,0,4.24,0Z"/><path class="cls-1" d="M86.77.62A.51.51,0,0,1,87.3.09a.52.52,0,0,1,.54.54.54.54,0,0,1-1.07,0Zm.16,1.83h.72V8h-.72Z"/><path class="cls-1" d="M96.52,4.58V8H95.8V4.56c0-1-.41-1.54-1.34-1.54a1.84,1.84,0,0,0-1.85,2V8h-.72V2.45h.54l.16,1a2.1,2.1,0,0,1,1.94-1.1C95.84,2.34,96.52,3.15,96.52,4.58Z"/><path class="cls-1" d="M101,6.45V3.09l-1.07,0v-.6H101V.72h.72V2.45h2v.64h-2V6.45c0,.7.29.94.79.94A1.81,1.81,0,0,0,103.58,7l.33.54a2.54,2.54,0,0,1-1.49.53C101.52,8.09,101,7.55,101,6.45Z"/><path class="cls-1" d="M9.52,25.48A3.81,3.81,0,0,1,5.4,29.24H0V15.7H5A3.59,3.59,0,0,1,8.9,19.18a3.22,3.22,0,0,1-1.65,2.89A3.68,3.68,0,0,1,9.52,25.48ZM1.27,21.59H5a2.29,2.29,0,0,0,2.59-2.41A2.37,2.37,0,0,0,5,16.9H1.27Zm7,3.83a2.59,2.59,0,0,0-2.78-2.63H1.27v5.26H5.36A2.63,2.63,0,0,0,8.22,25.42Z"/><path class="cls-1" d="M13.07,24.6V15.7h1.29v8.88c0,2.49,1.62,3.71,3.91,3.71s3.86-1.22,3.86-3.71V15.7H23.4v8.9c0,3.21-2.31,4.88-5.13,4.88S13.07,27.81,13.07,24.6Z"/><path class="cls-1" d="M39.44,22.05v4.8A6.54,6.54,0,0,1,34,29.48a6.78,6.78,0,0,1-6.95-7,6.87,6.87,0,0,1,12-4.66l-.87.82a5.47,5.47,0,0,0-4.28-1.95c-3.41,0-5.56,2.52-5.56,5.79a5.54,5.54,0,0,0,5.74,5.84,5.24,5.24,0,0,0,4.1-1.8V23.25h-4.3v-1.2Z"/><path class="cls-1" d="M50.45,15.7h1.27v6.11H60V15.7h1.29V29.24H60V23H51.72v6.23H50.45Z"/><path class="cls-1" d="M82.44,24.6V15.7h1.3v8.88c0,2.49,1.61,3.71,3.9,3.71s3.86-1.22,3.86-3.71V15.7h1.28v8.9c0,3.21-2.31,4.88-5.14,4.88S82.44,27.81,82.44,24.6Z"/><path class="cls-1" d="M96.27,27.85l.68-1a5.93,5.93,0,0,0,4,1.48c1.7,0,3.19-.92,3.19-2.53s-1.55-2.33-3.35-3c-2-.7-4.1-1.67-4.1-3.94s1.93-3.39,4.12-3.39a6.55,6.55,0,0,1,4.11,1.36l-.6,1a5.75,5.75,0,0,0-3.45-1.13c-1.45,0-2.88.69-2.88,2.13,0,1.65,1.65,2.25,3.28,2.82,2.23.78,4.16,1.8,4.16,4.09s-2,3.78-4.48,3.78A7.23,7.23,0,0,1,96.27,27.85Z"/><path class="cls-1" d="M117.37,28.05v1.19H109.1V15.7h8.09v1.2h-6.81v4.81h6v1.16h-6v5.18Z"/><path class="cls-1" d="M72,30a3,3,0,0,1-1.44-.38l-4-2.33A2.88,2.88,0,0,1,65,24.8V20.14a2.88,2.88,0,0,1,1.44-2.49l4-2.33a2.9,2.9,0,0,1,2.88,0l4,2.33a2.88,2.88,0,0,1,1.44,2.49V24.8a2.88,2.88,0,0,1-1.44,2.49l-4,2.33A2.92,2.92,0,0,1,72,30Zm0-13.79a1.72,1.72,0,0,0-.85.23l-3.94,2.28a1.71,1.71,0,0,0-.86,1.48v4.54a1.71,1.71,0,0,0,.86,1.48L71.1,28.5a1.74,1.74,0,0,0,1.71,0l3.93-2.28a1.71,1.71,0,0,0,.86-1.48V20.2a1.71,1.71,0,0,0-.86-1.48l-3.93-2.28A1.76,1.76,0,0,0,72,16.21Z"/></g></g></svg>